<svg width="384" height="284" xmlns="http://www.w3.org/2000/svg">

 <g>
  <title>Layer 1</title>
  <g>
   <g data-name="Group 234" id="svg_1">
    <g data-name="Group 232" id="svg_3">
     <circle r="16" cy="299.99995" cx="400" data-name="Ellipse 15" id="svg_4"/>
    </g>
    <path stroke="#fff" fill="#fff" d="m394.258,292.94197a4.652,4.652 0 0 1 2.142,0.477a3.624,3.624 0 0 1 1.467,1.332a3.592,3.592 0 0 1 0.533,1.935a2.753,2.753 0 0 1 -0.479,1.584a3.5,3.5 0 0 1 -1.305,1.13a3.4,3.4 0 0 1 1.926,1.156a3.37,3.37 0 0 1 0.7,2.2a4.175,4.175 0 0 1 -0.585,2.2a3.992,3.992 0 0 1 -1.636,1.504a5.151,5.151 0 0 1 -2.385,0.54l-4.68,0a0.9,0.9 0 0 1 -0.666,-0.27a0.9,0.9 0 0 1 -0.27,-0.666l0,-12.186a0.9,0.9 0 0 1 0.27,-0.675a0.921,0.921 0 0 1 0.666,-0.261l4.302,0zm0,5.778a2.606,2.606 0 0 0 1.7,-0.522a1.839,1.839 0 0 0 0.642,-1.512a1.813,1.813 0 0 0 -0.639,-1.5a2.637,2.637 0 0 0 -1.7,-0.513l-3.369,0l0,4.05l3.366,-0.003zm0.378,6.552a3.036,3.036 0 0 0 2.034,-0.657a2.309,2.309 0 0 0 0.774,-1.863a2.036,2.036 0 0 0 -0.765,-1.71a3.243,3.243 0 0 0 -2.043,-0.594l-3.744,0l0,4.824l3.744,0zm16.038,-5.562a0.891,0.891 0 0 1 0.657,0.261a0.913,0.913 0 0 1 0.261,0.675l0,4.3a0.809,0.809 0 0 1 -0.288,0.666a6.7,6.7 0 0 1 -4.41,1.568a6.72,6.72 0 0 1 -3.519,-0.954a6.861,6.861 0 0 1 -2.511,-2.61a7.409,7.409 0 0 1 -0.918,-3.654a7.323,7.323 0 0 1 0.918,-3.627a6.947,6.947 0 0 1 2.511,-2.61a6.672,6.672 0 0 1 3.519,-0.963a6.989,6.989 0 0 1 2.367,0.36a7.094,7.094 0 0 1 2.025,1.188a0.851,0.851 0 0 1 0.288,0.333a1.039,1.039 0 0 1 0.072,0.405a0.763,0.763 0 0 1 -0.261,0.594a0.9,0.9 0 0 1 -0.621,0.234a0.955,0.955 0 0 1 -0.612,-0.234a5.237,5.237 0 0 0 -1.44,-0.909a4.989,4.989 0 0 0 -1.818,-0.279a4.774,4.774 0 0 0 -2.583,0.738a5.338,5.338 0 0 0 -1.872,2.008a5.672,5.672 0 0 0 -0.693,2.763a5.657,5.657 0 0 0 0.693,2.772a5.356,5.356 0 0 0 1.872,2a4.774,4.774 0 0 0 2.583,0.738a5.243,5.243 0 0 0 2.9,-0.9l0,-3.2l-2.486,0a0.973,0.973 0 0 1 -0.675,-0.234a0.763,0.763 0 0 1 -0.261,-0.594a0.763,0.763 0 0 1 0.261,-0.594a0.973,0.973 0 0 1 0.675,-0.234l3.366,-0.007z" data-name="Path 229" id="svg_2"/>
   </g>
  </g>
  <g stroke="null">
   <path stroke="null" d="m393.55202,38.39249a8.87821,12.71898 0 1 1 0,25.44075a8.88211,12.72456 0 0 1 0,-25.44075zm0,1.80743c4.20936,0 7.61657,4.88398 7.61657,10.91434a7.61462,10.90876 0 1 1 -15.23314,0a7.61852,10.91434 0 0 1 7.61657,-10.91434zm-3.92705,17.77031l0,-13.93509l4.13732,0c1.04163,0 1.79901,0.12552 2.26628,0.37655c0.47506,0.24824 0.84888,0.69452 1.13314,1.33326c0.28426,0.64153 0.42639,1.37231 0.42639,2.19514c0,1.04597 -0.21222,1.91064 -0.6425,2.594c-0.42639,0.68058 -1.065,1.10733 -1.91582,1.28584c0.42249,0.35423 0.771,0.74194 1.04553,1.1687c0.27842,0.42397 0.6464,1.17985 1.11367,2.26487l1.18571,2.71952l-2.34611,0l-1.41156,-3.04307c-0.50621,-1.07944 -0.84888,-1.76002 -1.03774,-2.04173a1.55953,2.23419 0 0 0 -0.58993,-0.58016c-0.21222,-0.1032 -0.54321,-0.1562 -0.99685,-0.1562l-0.39913,0l0,5.82117l-1.96839,0l0,-0.00279zm1.96839,-8.03862l1.45634,0c0.93844,0 1.52838,-0.05857 1.76007,-0.17293a1.0319,1.4783 0 0 0 0.55099,-0.59132c0.13629,-0.27893 0.19859,-0.62758 0.19859,-1.04597a1.18766,1.70144 0 0 0 -0.25895,-1.13801a1.19739,1.71539 0 0 0 -0.7418,-0.5439a15.92627,22.81607 0 0 0 -1.42908,-0.04742l-1.53616,0l0,3.53956zm-217.36824,34.96325l0,30.47256c1.2266,-0.79215 2.93799,-1.09896 4.41574,-1.09896l54.63995,0c3.8297,0 7.32063,-4.50185 7.32063,-9.99109l0,-9.39698c0,-5.48924 -3.49093,-9.98831 -7.32063,-9.98831l-59.05569,0l0,0.00279zm68.07992,-31.20613c14.4271,0 26.22383,16.90286 26.22383,37.56841l0,16.6574c0,20.66556 -11.79673,37.56841 -26.22383,37.56841l-61.37259,0c-4.42742,0 -6.70539,0.73636 -6.70539,7.52261l0,37.85849l-27.96248,0l0,-137.17533l96.04045,0zm109.42981,76.91079l0,-42.56954c-2.94772,-0.4156 -4.9901,2.1784 -6.90593,5.06807l-24.86289,37.50147l31.76881,0zm0,31.20613l-52.45739,0l-19.25754,29.05841l-37.73435,0l73.32703,-110.58262c1.32394,-2.09194 2.66152,-4.15877 4.04971,-6.16703c6.86699,-9.92415 16.28256,-20.42289 26.5003,-20.42289l33.27772,0l0,137.17533l-27.70547,0l0,-29.0612zm-290.9581,-81.64136l35.08646,68.09118l0.01168,0.0251c1.21686,2.60237 2.5778,4.46001 4.32813,4.49906l0,-99.09091l27.82035,0l0,137.17533l-31.47871,0c-6.47564,0 -12.06736,-4.23687 -16.7401,-10.38717c-3.59801,-4.73336 -6.42113,-10.25049 -9.06123,-16.09119l-35.01442,-68.09118l-0.01168,-0.02789c-1.21686,-2.59679 -3.13658,-4.31776 -4.33008,-4.49348l0,99.08812l-27.8184,0l0,-137.17254l31.40862,0c6.47564,0 12.06736,4.23687 16.7401,10.38717c3.59801,4.73336 6.41918,10.24492 9.05928,16.0884z" fill="#36659A" clip-rule="evenodd" fill-rule="evenodd"/>
   <g stroke="null" fill="#36659A">
    <path stroke="null" d="m96.11243,235.9802c0,-1.13801 -0.22585,-2.07241 -0.68144,-2.80878c-0.45365,-0.73636 -1.25385,-1.40857 -2.39867,-2.01384c-1.63157,-0.72799 -2.88542,-1.67355 -3.75961,-2.81993c-0.87614,-1.15475 -1.31421,-2.68605 -1.31421,-4.59947c0,-1.96363 0.48285,-3.57861 1.4505,-4.8533c0.96765,-1.26632 2.20592,-1.90506 3.71872,-1.90506c1.60626,0 2.8971,0.70847 3.86864,2.11983c0.97154,1.41694 1.44076,3.18811 1.40766,5.3191l-0.02336,0.10599l-2.32858,0c0,-1.46157 -0.27063,-2.64142 -0.81189,-3.54235c-0.54126,-0.90093 -1.25385,-1.35279 -2.13778,-1.35279c-0.85862,0 -1.52643,0.3905 -1.99954,1.16312c-0.47312,0.77541 -0.71065,1.74607 -0.71065,2.90919c0,1.08502 0.25116,1.98037 0.75153,2.68605s1.34341,1.37231 2.53107,1.99989c1.58289,0.74194 2.78807,1.70981 3.61748,2.90919c0.82746,1.19938 1.24217,2.74741 1.24217,4.65247c0,2.03057 -0.48674,3.64834 -1.46218,4.84772c-0.97544,1.20496 -2.2546,1.80464 -3.83749,1.80464c-1.52838,0 -2.85816,-0.6499 -3.98741,-1.94969c-1.13119,-1.30258 -1.6744,-3.1658 -1.63546,-5.59245l0.02336,-0.10599l2.34027,0c0,1.69029 0.31346,2.95103 0.9365,3.77943c0.62498,0.83399 1.39793,1.24679 2.32274,1.24679c0.8995,0 1.60431,-0.35702 2.11247,-1.08502c0.51011,-0.71963 0.76516,-1.69029 0.76516,-2.91477zm10.12038,6.26466l-2.42399,0l0,-24.90243l2.42399,0l0,24.90243z"/>
   </g>
   <g stroke="null" fill="#36659A">
    <path stroke="null" d="m123.79649,242.24485l-2.43567,0l-6.73264,-18.37l-0.07204,0.03626l0,18.33374l-2.42399,0l0,-24.90243l2.42399,0l6.73264,18.31701l0.07204,-0.01674l0,-18.30027l2.43567,0l0,24.90243zm15.72183,-22.23311l-4.60849,0l0,22.23311l-2.43567,0l0,-22.23311l-4.57345,0l0,-2.66931l11.61566,0l0,2.66931l0.00195,0z"/>
   </g>
   <g stroke="null" fill="#36659A">
    <path stroke="null" d="m152.27297,230.68062l-5.89739,0l0,8.93118l6.94681,0l0,2.63026l-9.3708,0l0,-24.89964l9.31239,0l0,2.66931l-6.8884,0l0,8.02188l5.89739,0l0,2.647zm16.23194,-10.66888l-4.60849,0l0,22.23311l-2.43372,0l0,-22.23311l-4.57345,0l0,-2.66931l11.61566,0l0,2.66931zm7.06363,22.23311l-2.42399,0l0,-24.90243l2.42399,0l0,24.90243zm7.75481,-2.63305l7.58347,0l0,2.63026l-10.17295,0l0,-2.13935l7.31868,-20.11328l-7.24859,0l0,-2.64979l9.8517,0l0,2.06683l-7.33231,20.20533zm20.17457,-3.6595l-5.19259,0l-1.25385,6.29255l-2.52133,0l5.2179,-24.90243l2.35195,0l5.17117,24.90243l-2.52133,0l-1.25191,-6.29255zm-4.64549,-2.75578l4.10617,0l-2.00733,-10.12777l-0.06814,0l-2.0307,10.12777zm24.42287,9.04833l-2.43761,0l-6.7307,-18.37l-0.07204,0.03626l0,18.33374l-2.42204,0l0,-24.90243l2.42204,0l6.7307,18.31701l0.07204,-0.01674l0,-18.30027l2.43761,0l0,24.90243zm5.6657,0l0,-24.90243l4.93169,0c1.87883,0 3.4111,0.99855 4.60071,2.99287s1.78343,4.56042 1.78343,7.69833l0,3.53956c0,3.14906 -0.59383,5.71517 -1.78343,7.69833s-2.72187,2.97334 -4.60071,2.97334l-4.93169,0zm2.42399,-22.23311l0,19.60006l2.50965,0c1.1935,0 2.14946,-0.7531 2.864,-2.25371c0.71843,-1.49504 1.07668,-3.42799 1.07668,-5.78769l0,-3.57303c0,-2.32902 -0.35824,-4.24245 -1.07668,-5.74028c-0.71454,-1.50062 -1.66856,-2.24814 -2.864,-2.24814l-2.50965,0l0,0.00279z"/>
   </g>
   <g stroke="null" fill="#36659A">
    <path stroke="null" d="m257.39412,233.23279c0,2.95382 -0.55489,5.25216 -1.66856,6.90339c-1.11367,1.64566 -2.60505,2.47128 -4.4761,2.47128c-1.84768,0 -3.3157,-0.82562 -4.40795,-2.47128c-1.09225,-1.65124 -1.63546,-3.94958 -1.63546,-6.90339l0,-6.84203c0,-2.94545 0.54321,-5.24658 1.63546,-6.91176c1.09225,-1.66797 2.55638,-2.49917 4.39627,-2.49917c1.86715,0 3.36632,0.8312 4.48389,2.48801c1.11367,1.66239 1.67245,3.9691 1.67245,6.92013l0,6.84482zm-2.4123,-6.89782c0,-2.16167 -0.3232,-3.80733 -0.97349,-4.93418c-0.6464,-1.12128 -1.57121,-1.68471 -2.77249,-1.68471c-1.16429,0 -2.05795,0.56343 -2.68099,1.68471c-0.62693,1.12407 -0.93844,2.76973 -0.93844,4.93418l0,6.89782c0,2.18677 0.31541,3.84917 0.94234,4.97602c0.63082,1.12965 1.52448,1.69029 2.68877,1.69029c1.20128,0 2.1261,-0.56064 2.7686,-1.68471c0.6464,-1.12128 0.9657,-2.78367 0.9657,-4.9816l0,-6.89782zm24.67987,6.89782c0,2.95382 -0.55489,5.25216 -1.66856,6.90339c-1.11367,1.64566 -2.60505,2.47128 -4.4761,2.47128c-1.84768,0 -3.3157,-0.82562 -4.40795,-2.47128c-1.09225,-1.65124 -1.63546,-3.94958 -1.63546,-6.90339l0,-6.84203c0,-2.94545 0.54321,-5.24658 1.63546,-6.91176c1.09225,-1.66797 2.55638,-2.49917 4.39238,-2.49917c1.87104,0 3.36827,0.8312 4.48778,2.48801c1.11756,1.66239 1.67245,3.9691 1.67245,6.92013l0,6.84482zm-2.41036,-6.89782c0,-2.16167 -0.3232,-3.80733 -0.96959,-4.93418c-0.65029,-1.12128 -1.5751,-1.68471 -2.78028,-1.68471c-1.1604,0 -2.05406,0.56343 -2.67709,1.68471c-0.62693,1.12407 -0.93844,2.76973 -0.93844,4.93418l0,6.89782c0,2.18677 0.31541,3.84917 0.94623,4.97602c0.62693,1.12965 1.52059,1.69029 2.68488,1.69029c1.20128,0 2.1261,-0.56064 2.7686,-1.68471c0.6464,-1.12128 0.9657,-2.78367 0.9657,-4.9816l0,-6.89782zm21.48099,4.84493l-6.07651,0l0,11.06496l-2.42204,0l0,-24.90243l9.55187,0l0,2.66931l-7.12983,0l0,8.51837l6.07651,0l0,2.64979z"/>
   </g>
   <g stroke="null" fill="#36659A">
    <path stroke="null" d="m315.74111,217.34243l0,16.47331c0,2.75857 -0.54321,4.91187 -1.62378,6.46269c-1.08447,1.55082 -2.48629,2.32623 -4.21326,2.32623c-1.69582,0 -3.07622,-0.78099 -4.13732,-2.33739c-1.065,-1.5564 -1.59652,-3.7097 -1.59652,-6.45154l0,-16.47331l2.42593,0l0,16.47331c0,1.92179 0.30373,3.42799 0.91313,4.52416a2.92046,4.18388 0 0 0 2.39478,1.62892c1.01827,0 1.83989,-0.54111 2.46487,-1.62334c0.62303,-1.08502 0.93844,-2.594 0.93844,-4.52974l0,-16.47331l2.43372,0zm15.87759,2.66931l-4.60849,0l0,22.23311l-2.43761,0l0,-22.23311l-4.5715,0l0,-2.66931l11.61761,0l0,2.66931zm15.82697,-2.66931l0,16.47331c0,2.75857 -0.54321,4.91187 -1.62378,6.46269c-1.08447,1.55082 -2.48629,2.32623 -4.21326,2.32623c-1.69582,0 -3.07622,-0.78099 -4.13732,-2.33739c-1.065,-1.5564 -1.59652,-3.7097 -1.59652,-6.45154l0,-16.47331l2.42593,0l0,16.47331c0,1.92179 0.30373,3.42799 0.91313,4.52416a2.92046,4.18388 0 0 0 2.39478,1.62892c1.01437,0 1.836,-0.54111 2.46487,-1.62334c0.62303,-1.08502 0.93455,-2.594 0.93455,-4.52974l0,-16.47331l2.43761,0zm7.88525,14.18055l0,10.72188l-2.42204,0l0,-24.8829l5.12249,0c1.66856,0 2.96135,0.60806 3.87059,1.82975c0.91313,1.2189 1.36872,2.96776 1.36872,5.24658c0,1.30258 -0.21222,2.44059 -0.63861,3.41683s-1.03774,1.72934 -1.8321,2.26766c0.89366,0.43233 1.53227,1.14917 1.92751,2.1533c0.39524,1.00134 0.59383,2.24814 0.59383,3.72923l0,2.17004c0,0.76147 0.04867,1.4783 0.15186,2.13935c0.10708,0.66105 0.28815,1.17427 0.55099,1.53688l0,0.39607l-2.49408,0c-0.27452,-0.37376 -0.4478,-0.95113 -0.53152,-1.71539a10.82129,15.50265 0 0 1 -0.12461,-2.38481l0,-2.10309c0,-1.39463 -0.2239,-2.49359 -0.67365,-3.30526c-0.4517,-0.80888 -1.07278,-1.21332 -1.87104,-1.21332l-2.99834,0l0,-0.00279zm0,-2.65537l2.5778,0c1.00464,0 1.74449,-0.37934 2.2215,-1.13244c0.47896,-0.75868 0.71843,-1.83533 0.71843,-3.22716c0,-1.42252 -0.23558,-2.52985 -0.69896,-3.31363c-0.46338,-0.78657 -1.17208,-1.17985 -2.11831,-1.17985l-2.70046,0l0,8.85308z"/>
   </g>
   <path stroke="null" d="m380.50533,233.23279c0,2.95382 -0.55878,5.25216 -1.67245,6.90339c-1.11367,1.64566 -2.60895,2.47128 -4.4761,2.47128c-1.84768,0 -3.3157,-0.82562 -4.40795,-2.47128c-1.09225,-1.65124 -1.63546,-3.94958 -1.63546,-6.90339l0,-6.84203c0,-2.94545 0.54321,-5.24658 1.63546,-6.91176c1.09225,-1.66797 2.55638,-2.49917 4.39238,-2.49917c1.87104,0 3.36632,0.8312 4.48389,2.48801c1.11756,1.66239 1.68024,3.9691 1.68024,6.92013l0,6.84482zm-2.41425,-6.89782c0,-2.16167 -0.3232,-3.80733 -0.97349,-4.93418c-0.6464,-1.12128 -1.5751,-1.68471 -2.77639,-1.68471c-1.1604,0 -2.05406,0.56343 -2.68099,1.68471c-0.62303,1.12407 -0.93455,2.76973 -0.93455,4.93418l0,6.89782c0,2.18677 0.31541,3.84917 0.94234,4.97602c0.62693,1.12965 1.52448,1.69029 2.68877,1.69029c1.19739,0 2.1222,-0.56064 2.7686,-1.68471c0.6425,-1.12128 0.9657,-2.78367 0.9657,-4.9816l0,-6.89782z" fill="#36659A"/>
  </g>
 </g>
</svg>