<svg xmlns="http://www.w3.org/2000/svg" width="220" height="80"><path fill-rule="evenodd" clip-rule="evenodd" fill="#36659A" d="M209.279 3.393a4.56 4.56 0 110 9.121 4.562 4.562 0 010-9.121zm0 .648c2.162 0 3.912 1.751 3.912 3.913a3.911 3.911 0 11-7.824 0 3.913 3.913 0 013.912-3.913zm-2.017 6.371V5.416h2.125c.535 0 .924.045 1.164.135.244.089.436.249.582.478.146.23.219.492.219.787 0 .375-.109.685-.33.93-.219.244-.547.397-.984.461.217.127.396.266.537.419.143.152.332.423.572.812l.609.975h-1.205l-.725-1.091c-.26-.387-.436-.631-.533-.732a.801.801 0 00-.303-.208c-.109-.037-.279-.056-.512-.056h-.205v2.087h-1.011v-.001zm1.011-2.882h.748c.482 0 .785-.021.904-.062a.53.53 0 00.283-.212c.07-.1.102-.225.102-.375a.61.61 0 00-.133-.408.615.615 0 00-.381-.195 8.18 8.18 0 00-.734-.017h-.789V7.53zM96.629 20.065V30.99c.63-.284 1.509-.394 2.268-.394h28.064c1.967 0 3.76-1.614 3.76-3.582v-3.369c0-1.968-1.793-3.581-3.76-3.581H96.629v.001zm34.967-11.188c7.41 0 13.469 6.06 13.469 13.469v5.972c0 7.409-6.059 13.469-13.469 13.469h-31.522c-2.274 0-3.444.264-3.444 2.697v13.573H82.268V8.877h49.328zM187.801 36.451V21.189c-1.514-.149-2.563.781-3.547 1.817l-12.77 13.445h16.317zm0 11.188h-26.943l-9.891 10.418h-19.381l37.662-39.646c.68-.75 1.367-1.491 2.08-2.211 3.527-3.558 8.363-7.322 13.611-7.322h17.092v49.18h-14.23V47.639zM38.36 18.369l18.021 24.412.006.009c.625.933 1.324 1.599 2.223 1.613V8.877h14.289v49.18H56.731c-3.326 0-6.198-1.519-8.598-3.724-1.848-1.697-3.298-3.675-4.654-5.769L25.495 24.152l-.006-.01c-.625-.931-1.611-1.548-2.224-1.611v35.525H8.977V8.877h16.132c3.326 0 6.198 1.519 8.598 3.724 1.848 1.697 3.297 3.673 4.653 5.768z"/><g fill="#36659A"><path d="M56.509 74.232c0-.408-.116-.743-.35-1.007-.233-.264-.644-.505-1.232-.722-.838-.261-1.482-.6-1.931-1.011-.45-.414-.675-.963-.675-1.649 0-.704.248-1.283.745-1.74.497-.454 1.133-.683 1.91-.683.825 0 1.488.254 1.987.76.499.508.74 1.143.723 1.907l-.012.038h-1.196c0-.524-.139-.947-.417-1.27-.278-.323-.644-.485-1.098-.485-.441 0-.784.14-1.027.417-.243.278-.365.626-.365 1.043 0 .389.129.71.386.963s.69.492 1.3.717c.813.266 1.432.613 1.858 1.043.425.43.638.985.638 1.668 0 .728-.25 1.308-.751 1.738-.501.432-1.158.647-1.971.647-.785 0-1.468-.233-2.048-.699-.581-.467-.86-1.135-.84-2.005l.012-.038h1.202c0 .606.161 1.058.481 1.355.321.299.718.447 1.193.447.462 0 .824-.128 1.085-.389.262-.258.393-.606.393-1.045zM61.707 76.478h-1.245V67.55h1.245v8.928z"/></g><g fill="#36659A"><path d="M70.728 76.478h-1.251l-3.458-6.586-.037.013v6.573h-1.245V67.55h1.245l3.458 6.567.037-.006V67.55h1.251v8.928zM78.803 68.507h-2.367v7.971h-1.251v-7.971h-2.349v-.957h5.966v.957z"/></g><g fill="#36659A"><path d="M85.354 72.332h-3.029v3.202h3.568v.943H81.08V67.55h4.783v.957h-3.538v2.876h3.029v.949zM93.691 68.507h-2.367v7.971h-1.25v-7.971h-2.349v-.957h5.966v.957zM97.319 76.478h-1.245V67.55h1.245v8.928zM101.302 75.534h3.895v.943h-5.225v-.767l3.759-7.211h-3.723v-.95h5.06v.741l-3.766 7.244zM111.664 74.222h-2.667l-.644 2.256h-1.295l2.68-8.928h1.208l2.656 8.928h-1.295l-.643-2.256zm-2.386-.988h2.109l-1.031-3.631h-.035l-1.043 3.631zM121.822 76.478h-1.252l-3.457-6.586-.037.013v6.573h-1.244V67.55h1.244l3.457 6.567.037-.006V67.55h1.252v8.928zM124.732 76.478V67.55h2.533c.965 0 1.752.358 2.363 1.073s.916 1.635.916 2.76v1.269c0 1.129-.305 2.049-.916 2.76s-1.398 1.066-2.363 1.066h-2.533zm1.245-7.971v7.027h1.289c.613 0 1.104-.27 1.471-.808.369-.536.553-1.229.553-2.075V71.37c0-.835-.184-1.521-.553-2.058-.367-.538-.857-.806-1.471-.806h-1.289z"/></g><g fill="#36659A"><path d="M139.346 73.247c0 1.059-.285 1.883-.857 2.475-.572.59-1.338.886-2.299.886-.949 0-1.703-.296-2.264-.886-.561-.592-.84-1.416-.84-2.475v-2.453c0-1.056.279-1.881.84-2.478.561-.598 1.313-.896 2.258-.896.959 0 1.729.298 2.303.892.572.596.859 1.423.859 2.481v2.454zm-1.239-2.473c0-.775-.166-1.365-.5-1.769-.332-.402-.807-.604-1.424-.604-.598 0-1.057.202-1.377.604-.322.403-.482.993-.482 1.769v2.473c0 .784.162 1.38.484 1.784.324.405.783.606 1.381.606.617 0 1.092-.201 1.422-.604.332-.402.496-.998.496-1.786v-2.473zM150.783 73.247c0 1.059-.285 1.883-.857 2.475-.572.59-1.338.886-2.299.886-.949 0-1.703-.296-2.264-.886-.561-.592-.84-1.416-.84-2.475v-2.453c0-1.056.279-1.881.84-2.478.561-.598 1.313-.896 2.256-.896.961 0 1.73.298 2.305.892.574.596.859 1.423.859 2.481v2.454zm-1.238-2.473c0-.775-.166-1.365-.498-1.769-.334-.402-.809-.604-1.428-.604-.596 0-1.055.202-1.375.604-.322.403-.482.993-.482 1.769v2.473c0 .784.162 1.38.486 1.784.322.405.781.606 1.379.606.617 0 1.092-.201 1.422-.604.332-.402.496-.998.496-1.786v-2.473zM160.578 72.511h-3.121v3.967h-1.244V67.55h4.906v.957h-3.662v3.054h3.121v.95z"/></g><g fill="#36659A"><path d="M169.314 67.55v5.906c0 .989-.279 1.761-.834 2.317-.557.556-1.277.834-2.164.834-.871 0-1.58-.28-2.125-.838-.547-.558-.82-1.33-.82-2.313V67.55h1.246v5.906c0 .689.156 1.229.469 1.622a1.5 1.5 0 001.23.584c.523 0 .945-.194 1.266-.582.32-.389.482-.93.482-1.624V67.55h1.25zM177.469 68.507h-2.367v7.971h-1.252v-7.971h-2.348v-.957h5.967v.957zM185.598 67.55v5.906c0 .989-.279 1.761-.834 2.317-.557.556-1.277.834-2.164.834-.871 0-1.58-.28-2.125-.838-.547-.558-.82-1.33-.82-2.313V67.55h1.246v5.906c0 .689.156 1.229.469 1.622a1.5 1.5 0 001.23.584c.521 0 .943-.194 1.266-.582.32-.389.48-.93.48-1.624V67.55h1.252zM189.648 72.634v3.844h-1.244v-8.921h2.631c.857 0 1.521.218 1.988.656.469.437.703 1.064.703 1.881 0 .467-.109.875-.328 1.225s-.533.62-.941.813c.459.155.787.412.99.772.203.359.305.806.305 1.337v.778c0 .273.025.53.078.767.055.237.148.421.283.551v.142h-1.281c-.141-.134-.23-.341-.273-.615a5.558 5.558 0 01-.064-.855v-.754c0-.5-.115-.894-.346-1.185-.232-.29-.551-.435-.961-.435h-1.54zm0-.952h1.324c.516 0 .896-.136 1.141-.406.246-.272.369-.658.369-1.157 0-.51-.121-.907-.359-1.188-.238-.282-.602-.423-1.088-.423h-1.387v3.174z"/></g><path fill="#36659A" d="M202.578 73.247c0 1.059-.287 1.883-.859 2.475-.572.59-1.34.886-2.299.886-.949 0-1.703-.296-2.264-.886-.561-.592-.84-1.416-.84-2.475v-2.453c0-1.056.279-1.881.84-2.478.561-.598 1.313-.896 2.256-.896.961 0 1.729.298 2.303.892.574.596.863 1.423.863 2.481v2.454zm-1.24-2.473c0-.775-.166-1.365-.5-1.769-.332-.402-.809-.604-1.426-.604-.596 0-1.055.202-1.377.604-.32.403-.48.993-.48 1.769v2.473c0 .784.162 1.38.484 1.784.322.405.783.606 1.381.606.615 0 1.09-.201 1.422-.604.33-.402.496-.998.496-1.786v-2.473z"/></svg>